<svg
    id="wave"
    style="transform: rotate(0deg); transition: 0.3s;"
    viewBox="0 0 1440 100"
    xmlns="http://www.w3.org/2000/svg"
>
    <defs>
        <linearGradient id="sw-gradient-0" x1="0" x2="0" y1="1" y2="0">
            <stop stopColor="rgba(243, 106, 62, 1)" offset="0%" />
            <stop stopColor="rgba(255, 95, 30, 0.8)" offset="100%" />
        </linearGradient>
    </defs>
    <path
        class="wave"
        fill="url(#sw-gradient-1)"
        d="M0,60L10.9,50C21.8,40,44,20,65,10C87.3,0,109,0,131,3.3C152.7,7,175,13,196,18.3C218.2,23,240,27,262,36.7C283.6,47,305,63,327,63.3C349.1,63,371,47,393,35C414.5,23,436,17,458,23.3C480,30,502,50,524,51.7C545.5,53,567,37,589,36.7C610.9,37,633,53,655,65C676.4,77,698,83,720,83.3C741.8,83,764,77,785,65C807.3,53,829,37,851,38.3C872.7,40,895,60,916,63.3C938.2,67,960,53,982,55C1003.6,57,1025,73,1047,71.7C1069.1,70,1091,50,1113,41.7C1134.5,33,1156,37,1178,38.3C1200,40,1222,40,1244,46.7C1265.5,53,1287,67,1309,75C1330.9,83,1353,87,1375,85C1396.4,83,1418,77,1440,75C1461.8,73,1484,77,1505,71.7C1527.3,67,1549,53,1560,46.7L1570.9,40L1570.9,100L1560,100C1549.1,100,1527,100,1505,100C1483.6,100,1462,100,1440,100C1418.2,100,1396,100,1375,100C1352.7,100,1331,100,1309,100C1287.3,100,1265,100,1244,100C1221.8,100,1200,100,1178,100C1156.4,100,1135,100,1113,100C1090.9,100,1069,100,1047,100C1025.5,100,1004,100,982,100C960,100,938,100,916,100C894.5,100,873,100,851,100C829.1,100,807,100,785,100C763.6,100,742,100,720,100C698.2,100,676,100,655,100C632.7,100,611,100,589,100C567.3,100,545,100,524,100C501.8,100,480,100,458,100C436.4,100,415,100,393,100C370.9,100,349,100,327,100C305.5,100,284,100,262,100C240,100,218,100,196,100C174.5,100,153,100,131,100C109.1,100,87,100,65,100C43.6,100,22,100,11,100L0,100Z"
    />
    <style>
        .wave {
            animation: wave 5s ease-in-out infinite;
        }

        @keyframes wave {
            0% {
                d: path("M0,60L10.9,50C21.8,40,44,20,65,10C87.3,0,109,0,131,3.3C152.7,7,175,13,196,18.3C218.2,23,240,27,262,36.7C283.6,47,305,63,327,63.3C349.1,63,371,47,393,35C414.5,23,436,17,458,23.3C480,30,502,50,524,51.7C545.5,53,567,37,589,36.7C610.9,37,633,53,655,65C676.4,77,698,83,720,83.3C741.8,83,764,77,785,65C807.3,53,829,37,851,38.3C872.7,40,895,60,916,63.3C938.2,67,960,53,982,55C1003.6,57,1025,73,1047,71.7C1069.1,70,1091,50,1113,41.7C1134.5,33,1156,37,1178,38.3C1200,40,1222,40,1244,46.7C1265.5,53,1287,67,1309,75C1330.9,83,1353,87,1375,85C1396.4,83,1418,77,1440,75C1461.8,73,1484,77,1505,71.7C1527.3,67,1549,53,1560,46.7L1570.9,40L1570.9,100L1560,100C1549.1,100,1527,100,1505,100C1483.6,100,1462,100,1440,100C1418.2,100,1396,100,1375,100C1352.7,100,1331,100,1309,100C1287.3,100,1265,100,1244,100C1221.8,100,1200,100,1178,100C1156.4,100,1135,100,1113,100C1090.9,100,1069,100,1047,100C1025.5,100,1004,100,982,100C960,100,938,100,916,100C894.5,100,873,100,851,100C829.1,100,807,100,785,100C763.6,100,742,100,720,100C698.2,100,676,100,655,100C632.7,100,611,100,589,100C567.3,100,545,100,524,100C501.8,100,480,100,458,100C436.4,100,415,100,393,100C370.9,100,349,100,327,100C305.5,100,284,100,262,100C240,100,218,100,196,100C174.5,100,153,100,131,100C109.1,100,87,100,65,100C43.6,100,22,100,11,100L0,100Z");
                 fill: rgba(255, 95, 30, 0.5);
            }

            50% {
                d: path("M0,60L10.9,55C21.8,50,44,40,65,30C87.3,20,109,10,131,10.3C152.7,10,175,30,196,35.3C218.2,40,240,30,262,36.7C283.6,43,305,67,327,70.3C349.1,73,371,60,393,45C414.5,30,436,23,458,30.3C480,37,502,55,524,61.7C545.5,68,567,57,589,50.7C610.9,44,633,50,655,65C676.4,80,698,90,720,83.3C741.8,77,764,63,785,55C807.3,47,829,40,851,38.3C872.7,37,895,45,916,53.3C938.2,60,960,63,982,55C1003.6,47,1025,37,1047,35.7C1069.1,34,1091,50,1113,60.7C1134.5,71,1156,80,1178,78.3C1200,76,1222,60,1244,55C1265.5,50,1287,55,1309,75C1330.9,95,1353,107,1375,103C1396.4,100,1418,90,1440,75C1461.8,60,1484,55,1505,60.7C1527.3,66,1549,70,1560,50L1570.9,40L1570.9,100L1560,100C1549.1,100,1527,100,1505,100C1483.6,100,1462,100,1440,100C1418.2,100,1396,100,1375,100C1352.7,100,1331,100,1309,100C1287.3,100,1265,100,1244,100C1221.8,100,1200,100,1178,100C1156.4,100,1135,100,1113,100C1090.9,100,1069,100,1047,100C1025.5,100,1004,100,982,100C960,100,938,100,916,100C894.5,100,873,100,851,100C829.1,100,807,100,785,100C763.6,100,742,100,720,100C698.2,100,676,100,655,100C632.7,100,611,100,589,100C567.3,100,545,100,524,100C501.8,100,480,100,458,100C436.4,100,415,100,393,100C370.9,100,349,100,327,100C305.5,100,284,100,262,100C240,100,218,100,196,100C174.5,100,153,100,131,100C109.1,100,87,100,65,100C43.6,100,22,100,11,100L0,100Z");
                 fill: rgba(255, 95, 30, 0.5);
            }
            100% {
                d: path("M0,60L10.9,50C21.8,40,44,20,65,10C87.3,0,109,0,131,3.3C152.7,7,175,13,196,18.3C218.2,23,240,27,262,36.7C283.6,47,305,63,327,63.3C349.1,63,371,47,393,35C414.5,23,436,17,458,23.3C480,30,502,50,524,51.7C545.5,53,567,37,589,36.7C610.9,37,633,53,655,65C676.4,77,698,83,720,83.3C741.8,83,764,77,785,65C807.3,53,829,37,851,38.3C872.7,40,895,60,916,63.3C938.2,67,960,53,982,55C1003.6,57,1025,73,1047,71.7C1069.1,70,1091,50,1113,41.7C1134.5,33,1156,37,1178,38.3C1200,40,1222,40,1244,46.7C1265.5,53,1287,67,1309,75C1330.9,83,1353,87,1375,85C1396.4,83,1418,77,1440,75C1461.8,73,1484,77,1505,71.7C1527.3,67,1549,53,1560,46.7L1570.9,40L1570.9,100L1560,100C1549.1,100,1527,100,1505,100C1483.6,100,1462,100,1440,100C1418.2,100,1396,100,1375,100C1352.7,100,1331,100,1309,100C1287.3,100,1265,100,1244,100C1221.8,100,1200,100,1178,100C1156.4,100,1135,100,1113,100C1090.9,100,1069,100,1047,100C1025.5,100,1004,100,982,100C960,100,938,100,916,100C894.5,100,873,100,851,100C829.1,100,807,100,785,100C763.6,100,742,100,720,100C698.2,100,676,100,655,100C632.7,100,611,100,589,100C567.3,100,545,100,524,100C501.8,100,480,100,458,100C436.4,100,415,100,393,100C370.9,100,349,100,327,100C305.5,100,284,100,262,100C240,100,218,100,196,100C174.5,100,153,100,131,100C109.1,100,87,100,65,100C43.6,100,22,100,11,100L0,100Z");
                 fill: rgba(255, 95, 30, 0.5);
            }
        }
    </style>
</svg>
